<?xml version="1.0" standalone="no"?>
<!DOCTYPE svg PUBLIC "-//W3C//DTD SVG 20010904//EN"
 "http://www.w3.org/TR/2001/REC-SVG-20010904/DTD/svg10.dtd">
<svg version="1.0" xmlns="http://www.w3.org/2000/svg"
 width="700.000000pt" height="700.000000pt" viewBox="0 0 700.000000 700.000000"
 preserveAspectRatio="xMidYMid meet">
<metadata>
Created by potrace 1.11, written by Peter Selinger 2001-2013
</metadata>
<g transform="translate(0.000000,700.000000) scale(0.100000,-0.100000)"
fill="#000000" stroke="none">
<path d="M313 6030 c-12 -5 -29 -20 -37 -33 -15 -21 -16 -268 -14 -2506 l3
-2483 28 -24 28 -24 1523 0 1522 0 149 -60 c82 -33 152 -60 157 -60 4 0 8 27
8 60 l0 60 1506 2 1506 3 24 28 24 28 -2 2485 -3 2486 -28 24 -28 24 -1505 0
-1504 0 0 -1355 0 -1355 -170 0 -170 0 0 1355 0 1355 -1497 -1 c-841 0 -1508
-4 -1520 -9z m197 -205 c0 -33 -2 -35 -35 -35 -33 0 -35 2 -35 35 0 33 2 35
35 35 33 0 35 -2 35 -35z m350 0 l0 -35 -160 0 -160 0 0 35 0 35 160 0 160 0
0 -35z m350 0 l0 -35 -160 0 -160 0 0 35 0 35 160 0 160 0 0 -35z m350 0 l0
-35 -160 0 -160 0 0 35 0 35 160 0 160 0 0 -35z m350 0 l0 -35 -160 0 -160 0
0 35 0 35 160 0 160 0 0 -35z m350 0 l0 -35 -160 0 -160 0 0 35 0 35 160 0
160 0 0 -35z m350 0 l0 -35 -160 0 -160 0 0 35 0 35 160 0 160 0 0 -35z m350
0 l0 -35 -160 0 -160 0 0 35 0 35 160 0 160 0 0 -35z m350 0 l0 -35 -160 0
-160 0 0 35 0 35 160 0 160 0 0 -35z m700 0 l0 -35 -160 0 -160 0 0 35 0 35
160 0 160 0 0 -35z m350 0 l0 -35 -160 0 -160 0 0 35 0 35 160 0 160 0 0 -35z
m350 0 l0 -35 -160 0 -160 0 0 35 0 35 160 0 160 0 0 -35z m350 0 l0 -35 -160
0 -160 0 0 35 0 35 160 0 160 0 0 -35z m350 0 l0 -35 -160 0 -160 0 0 35 0 35
160 0 160 0 0 -35z m350 0 l0 -35 -160 0 -160 0 0 35 0 35 160 0 160 0 0 -35z
m350 0 l0 -35 -160 0 -160 0 0 35 0 35 160 0 160 0 0 -35z m350 0 l0 -35 -160
0 -160 0 0 35 0 35 160 0 160 0 0 -35z m100 0 c0 -33 -2 -35 -35 -35 -33 0
-35 2 -35 35 0 33 2 35 35 35 33 0 35 -2 35 -35z m-6050 -225 l0 -160 -35 0
-35 0 0 160 0 160 35 0 35 0 0 -160z m350 0 l0 -160 -160 0 -160 0 0 160 0
160 160 0 160 0 0 -160z m350 0 l0 -160 -160 0 -160 0 0 160 0 160 160 0 160
0 0 -160z m350 0 l0 -160 -160 0 -160 0 0 160 0 160 160 0 160 0 0 -160z m350
0 l0 -160 -160 0 -160 0 0 160 0 160 160 0 160 0 0 -160z m350 0 l0 -160 -160
0 -160 0 0 160 0 160 160 0 160 0 0 -160z m350 0 l0 -160 -160 0 -160 0 0 160
0 160 160 0 160 0 0 -160z m350 0 l0 -160 -160 0 -160 0 0 160 0 160 160 0
160 0 0 -160z m350 0 l0 -160 -160 0 -160 0 0 160 0 160 160 0 160 0 0 -160z
m700 0 l0 -160 -160 0 -160 0 0 160 0 160 160 0 160 0 0 -160z m350 0 l0 -160
-160 0 -160 0 0 160 0 160 160 0 160 0 0 -160z m350 0 l0 -160 -160 0 -160 0
0 160 0 160 160 0 160 0 0 -160z m350 0 l0 -160 -160 0 -160 0 0 160 0 160
160 0 160 0 0 -160z m350 0 l0 -160 -160 0 -160 0 0 160 0 160 160 0 160 0 0
-160z m350 0 l0 -160 -160 0 -160 0 0 160 0 160 160 0 160 0 0 -160z m350 0
l0 -160 -160 0 -160 0 0 160 0 160 160 0 160 0 0 -160z m350 0 l0 -160 -160 0
-160 0 0 160 0 160 160 0 160 0 0 -160z m100 0 l0 -160 -35 0 -35 0 0 160 0
160 35 0 35 0 0 -160z m-6050 -350 l0 -160 -35 0 -35 0 0 160 0 160 35 0 35 0
0 -160z m350 0 l0 -160 -160 0 -160 0 0 160 0 160 160 0 160 0 0 -160z m350 0
l0 -160 -160 0 -160 0 0 160 0 160 160 0 160 0 0 -160z m350 0 l0 -160 -160 0
-160 0 0 160 0 160 160 0 160 0 0 -160z m350 0 l0 -160 -160 0 -160 0 0 160 0
160 160 0 160 0 0 -160z m350 0 l0 -160 -160 0 -160 0 0 160 0 160 160 0 160
0 0 -160z m350 0 l0 -160 -160 0 -160 0 0 160 0 160 160 0 160 0 0 -160z m350
0 l0 -160 -160 0 -160 0 0 160 0 160 160 0 160 0 0 -160z m350 0 l0 -160 -160
0 -160 0 0 160 0 160 160 0 160 0 0 -160z m700 0 l0 -160 -160 0 -160 0 0 160
0 160 160 0 160 0 0 -160z m350 0 l0 -160 -160 0 -160 0 0 160 0 160 160 0
160 0 0 -160z m350 0 l0 -160 -160 0 -160 0 0 160 0 160 160 0 160 0 0 -160z
m350 0 l0 -160 -160 0 -160 0 0 160 0 160 160 0 160 0 0 -160z m350 0 l0 -160
-160 0 -160 0 0 160 0 160 160 0 160 0 0 -160z m350 0 l0 -160 -160 0 -160 0
0 160 0 160 160 0 160 0 0 -160z m350 0 l0 -160 -160 0 -160 0 0 160 0 160
160 0 160 0 0 -160z m350 0 l0 -160 -160 0 -160 0 0 160 0 160 160 0 160 0 0
-160z m100 0 l0 -160 -35 0 -35 0 0 160 0 160 35 0 35 0 0 -160z m-6050 -350
l0 -160 -35 0 -35 0 0 160 0 160 35 0 35 0 0 -160z m350 0 l0 -160 -160 0
-160 0 0 160 0 160 160 0 160 0 0 -160z m350 0 l0 -160 -160 0 -160 0 0 160 0
160 160 0 160 0 0 -160z m350 0 l0 -160 -160 0 -160 0 0 160 0 160 160 0 160
0 0 -160z m350 0 l0 -160 -160 0 -160 0 0 160 0 160 160 0 160 0 0 -160z m350
0 l0 -160 -160 0 -160 0 0 160 0 160 160 0 160 0 0 -160z m350 0 l0 -160 -160
0 -160 0 0 160 0 160 160 0 160 0 0 -160z m350 0 l0 -160 -160 0 -160 0 0 160
0 160 160 0 160 0 0 -160z m350 0 l0 -160 -160 0 -160 0 0 160 0 160 160 0
160 0 0 -160z m700 0 l0 -160 -160 0 -160 0 0 160 0 160 160 0 160 0 0 -160z
m350 0 l0 -160 -160 0 -160 0 0 160 0 160 160 0 160 0 0 -160z m350 0 l0 -160
-160 0 -160 0 0 160 0 160 160 0 160 0 0 -160z m350 0 l0 -160 -160 0 -160 0
0 160 0 160 160 0 160 0 0 -160z m350 0 l0 -160 -160 0 -160 0 0 160 0 160
160 0 160 0 0 -160z m350 0 l0 -160 -160 0 -160 0 0 160 0 160 160 0 160 0 0
-160z m350 0 l0 -160 -160 0 -160 0 0 160 0 160 160 0 160 0 0 -160z m350 0
l0 -160 -160 0 -160 0 0 160 0 160 160 0 160 0 0 -160z m100 0 l0 -160 -35 0
-35 0 0 160 0 160 35 0 35 0 0 -160z m-6050 -350 l0 -160 -35 0 -35 0 0 160 0
160 35 0 35 0 0 -160z m350 0 l0 -160 -160 0 -160 0 0 160 0 160 160 0 160 0
0 -160z m350 0 l0 -160 -160 0 -160 0 0 160 0 160 160 0 160 0 0 -160z m350 0
l0 -160 -160 0 -160 0 0 160 0 160 160 0 160 0 0 -160z m350 0 l0 -160 -160 0
-160 0 0 160 0 160 160 0 160 0 0 -160z m350 0 l0 -160 -160 0 -160 0 0 160 0
160 160 0 160 0 0 -160z m350 0 l0 -160 -160 0 -160 0 0 160 0 160 160 0 160
0 0 -160z m350 0 l0 -160 -160 0 -160 0 0 160 0 160 160 0 160 0 0 -160z m350
0 l0 -160 -160 0 -160 0 0 160 0 160 160 0 160 0 0 -160z m700 0 l0 -160 -160
0 -160 0 0 160 0 160 160 0 160 0 0 -160z m350 0 l0 -160 -160 0 -160 0 0 160
0 160 160 0 160 0 0 -160z m350 0 l0 -160 -160 0 -160 0 0 160 0 160 160 0
160 0 0 -160z m350 0 l0 -160 -160 0 -160 0 0 160 0 160 160 0 160 0 0 -160z
m350 0 l0 -160 -160 0 -160 0 0 160 0 160 160 0 160 0 0 -160z m350 0 l0 -160
-160 0 -160 0 0 160 0 160 160 0 160 0 0 -160z m350 0 l0 -160 -160 0 -160 0
0 160 0 160 160 0 160 0 0 -160z m350 0 l0 -160 -160 0 -160 0 0 160 0 160
160 0 160 0 0 -160z m100 0 l0 -160 -35 0 -35 0 0 160 0 160 35 0 35 0 0 -160z
m-6050 -350 l0 -160 -35 0 -35 0 0 160 0 160 35 0 35 0 0 -160z m350 0 l0
-160 -160 0 -160 0 0 160 0 160 160 0 160 0 0 -160z m350 0 l0 -160 -160 0
-160 0 0 160 0 160 160 0 160 0 0 -160z m350 0 l0 -160 -160 0 -160 0 0 160 0
160 160 0 160 0 0 -160z m350 0 l0 -160 -160 0 -160 0 0 160 0 160 160 0 160
0 0 -160z m350 0 l0 -160 -160 0 -160 0 0 160 0 160 160 0 160 0 0 -160z m350
0 l0 -160 -160 0 -160 0 0 160 0 160 160 0 160 0 0 -160z m350 0 l0 -160 -160
0 -160 0 0 160 0 160 160 0 160 0 0 -160z m350 0 l0 -160 -160 0 -160 0 0 160
0 160 160 0 160 0 0 -160z m700 0 l0 -160 -160 0 -160 0 0 160 0 160 160 0
160 0 0 -160z m350 0 l0 -160 -160 0 -160 0 0 160 0 160 160 0 160 0 0 -160z
m350 0 l0 -160 -160 0 -160 0 0 160 0 160 160 0 160 0 0 -160z m350 0 l0 -160
-160 0 -160 0 0 160 0 160 160 0 160 0 0 -160z m350 0 l0 -160 -160 0 -160 0
0 160 0 160 160 0 160 0 0 -160z m350 0 l0 -160 -160 0 -160 0 0 160 0 160
160 0 160 0 0 -160z m350 0 l0 -160 -160 0 -160 0 0 160 0 160 160 0 160 0 0
-160z m350 0 l0 -160 -160 0 -160 0 0 160 0 160 160 0 160 0 0 -160z m100 0
l0 -160 -35 0 -35 0 0 160 0 160 35 0 35 0 0 -160z m-6050 -350 l0 -160 -35 0
-35 0 0 160 0 160 35 0 35 0 0 -160z m350 0 l0 -160 -160 0 -160 0 0 160 0
160 160 0 160 0 0 -160z m350 0 l0 -160 -160 0 -160 0 0 160 0 160 160 0 160
0 0 -160z m350 0 l0 -160 -160 0 -160 0 0 160 0 160 160 0 160 0 0 -160z m350
0 l0 -160 -160 0 -160 0 0 160 0 160 160 0 160 0 0 -160z m350 0 l0 -160 -160
0 -160 0 0 160 0 160 160 0 160 0 0 -160z m350 0 l0 -160 -160 0 -160 0 0 160
0 160 160 0 160 0 0 -160z m350 0 l0 -160 -160 0 -160 0 0 160 0 160 160 0
160 0 0 -160z m350 0 l0 -160 -160 0 -160 0 0 160 0 160 160 0 160 0 0 -160z
m700 0 l0 -160 -160 0 -160 0 0 160 0 160 160 0 160 0 0 -160z m350 0 l0 -160
-160 0 -160 0 0 160 0 160 160 0 160 0 0 -160z m350 0 l0 -160 -160 0 -160 0
0 160 0 160 160 0 160 0 0 -160z m350 0 l0 -160 -160 0 -160 0 0 160 0 160
160 0 160 0 0 -160z m350 0 l0 -160 -160 0 -160 0 0 160 0 160 160 0 160 0 0
-160z m350 0 l0 -160 -160 0 -160 0 0 160 0 160 160 0 160 0 0 -160z m350 0
l0 -160 -160 0 -160 0 0 160 0 160 160 0 160 0 0 -160z m350 0 l0 -160 -160 0
-160 0 0 160 0 160 160 0 160 0 0 -160z m100 0 l0 -160 -35 0 -35 0 0 160 0
160 35 0 35 0 0 -160z m-6050 -350 l0 -160 -35 0 -35 0 0 160 0 160 35 0 35 0
0 -160z m350 0 l0 -160 -160 0 -160 0 0 160 0 160 160 0 160 0 0 -160z m350 0
l0 -160 -160 0 -160 0 0 160 0 160 160 0 160 0 0 -160z m350 0 l0 -160 -160 0
-160 0 0 160 0 160 160 0 160 0 0 -160z m350 0 l0 -160 -160 0 -160 0 0 160 0
160 160 0 160 0 0 -160z m350 0 l0 -160 -160 0 -160 0 0 160 0 160 160 0 160
0 0 -160z m350 0 l0 -160 -160 0 -160 0 0 160 0 160 160 0 160 0 0 -160z m350
0 l0 -160 -160 0 -160 0 0 160 0 160 160 0 160 0 0 -160z m350 0 l0 -160 -160
0 -160 0 0 160 0 160 160 0 160 0 0 -160z m700 0 l0 -160 -160 0 -160 0 0 160
0 160 160 0 160 0 0 -160z m350 0 l0 -160 -160 0 -160 0 0 160 0 160 160 0
160 0 0 -160z m350 0 l0 -160 -160 0 -160 0 0 160 0 160 160 0 160 0 0 -160z
m350 0 l0 -160 -160 0 -160 0 0 160 0 160 160 0 160 0 0 -160z m350 0 l0 -160
-160 0 -160 0 0 160 0 160 160 0 160 0 0 -160z m350 0 l0 -160 -160 0 -160 0
0 160 0 160 160 0 160 0 0 -160z m350 0 l0 -160 -160 0 -160 0 0 160 0 160
160 0 160 0 0 -160z m350 0 l0 -160 -160 0 -160 0 0 160 0 160 160 0 160 0 0
-160z m100 0 l0 -160 -35 0 -35 0 0 160 0 160 35 0 35 0 0 -160z m-6050 -350
l0 -160 -35 0 -35 0 0 160 0 160 35 0 35 0 0 -160z m350 0 l0 -160 -160 0
-160 0 0 160 0 160 160 0 160 0 0 -160z m350 0 l0 -160 -160 0 -160 0 0 160 0
160 160 0 160 0 0 -160z m350 0 l0 -160 -160 0 -160 0 0 160 0 160 160 0 160
0 0 -160z m350 0 l0 -160 -160 0 -160 0 0 160 0 160 160 0 160 0 0 -160z m350
0 l0 -160 -160 0 -160 0 0 160 0 160 160 0 160 0 0 -160z m350 0 l0 -160 -160
0 -160 0 0 160 0 160 160 0 160 0 0 -160z m350 0 l0 -160 -160 0 -160 0 0 160
0 160 160 0 160 0 0 -160z m350 0 l0 -160 -160 0 -160 0 0 160 0 160 160 0
160 0 0 -160z m700 0 l0 -160 -160 0 -160 0 0 160 0 160 160 0 160 0 0 -160z
m350 0 l0 -160 -160 0 -160 0 0 160 0 160 160 0 160 0 0 -160z m350 0 l0 -160
-160 0 -160 0 0 160 0 160 160 0 160 0 0 -160z m350 0 l0 -160 -160 0 -160 0
0 160 0 160 160 0 160 0 0 -160z m350 0 l0 -160 -160 0 -160 0 0 160 0 160
160 0 160 0 0 -160z m350 0 l0 -160 -160 0 -160 0 0 160 0 160 160 0 160 0 0
-160z m350 0 l0 -160 -160 0 -160 0 0 160 0 160 160 0 160 0 0 -160z m350 0
l0 -160 -160 0 -160 0 0 160 0 160 160 0 160 0 0 -160z m100 0 l0 -160 -35 0
-35 0 0 160 0 160 35 0 35 0 0 -160z m-6050 -350 l0 -160 -35 0 -35 0 0 160 0
160 35 0 35 0 0 -160z m350 0 l0 -160 -160 0 -160 0 0 160 0 160 160 0 160 0
0 -160z m350 0 l0 -160 -160 0 -160 0 0 160 0 160 160 0 160 0 0 -160z m350 0
l0 -160 -160 0 -160 0 0 160 0 160 160 0 160 0 0 -160z m350 0 l0 -160 -160 0
-160 0 0 160 0 160 160 0 160 0 0 -160z m350 0 l0 -160 -160 0 -160 0 0 160 0
160 160 0 160 0 0 -160z m350 0 l0 -160 -160 0 -160 0 0 160 0 160 160 0 160
0 0 -160z m350 0 l0 -160 -160 0 -160 0 0 160 0 160 160 0 160 0 0 -160z m350
0 l0 -160 -160 0 -160 0 0 160 0 160 160 0 160 0 0 -160z m700 0 l0 -160 -160
0 -160 0 0 160 0 160 160 0 160 0 0 -160z m350 0 l0 -160 -160 0 -160 0 0 160
0 160 160 0 160 0 0 -160z m350 0 l0 -160 -160 0 -160 0 0 160 0 160 160 0
160 0 0 -160z m350 0 l0 -160 -160 0 -160 0 0 160 0 160 160 0 160 0 0 -160z
m350 0 l0 -160 -160 0 -160 0 0 160 0 160 160 0 160 0 0 -160z m350 0 l0 -160
-160 0 -160 0 0 160 0 160 160 0 160 0 0 -160z m350 0 l0 -160 -160 0 -160 0
0 160 0 160 160 0 160 0 0 -160z m350 0 l0 -160 -160 0 -160 0 0 160 0 160
160 0 160 0 0 -160z m100 0 l0 -160 -35 0 -35 0 0 160 0 160 35 0 35 0 0 -160z
m-6050 -350 l0 -160 -35 0 -35 0 0 160 0 160 35 0 35 0 0 -160z m350 0 l0
-160 -160 0 -160 0 0 160 0 160 160 0 160 0 0 -160z m350 0 l0 -160 -160 0
-160 0 0 160 0 160 160 0 160 0 0 -160z m350 0 l0 -160 -160 0 -160 0 0 160 0
160 160 0 160 0 0 -160z m350 0 l0 -160 -160 0 -160 0 0 160 0 160 160 0 160
0 0 -160z m350 0 l0 -160 -160 0 -160 0 0 160 0 160 160 0 160 0 0 -160z m350
0 l0 -160 -160 0 -160 0 0 160 0 160 160 0 160 0 0 -160z m350 0 l0 -160 -160
0 -160 0 0 160 0 160 160 0 160 0 0 -160z m350 0 l0 -160 -160 0 -160 0 0 160
0 160 160 0 160 0 0 -160z m700 0 l0 -160 -160 0 -160 0 0 160 0 160 160 0
160 0 0 -160z m350 0 l0 -160 -160 0 -160 0 0 160 0 160 160 0 160 0 0 -160z
m350 0 l0 -160 -160 0 -160 0 0 160 0 160 160 0 160 0 0 -160z m350 0 l0 -160
-160 0 -160 0 0 160 0 160 160 0 160 0 0 -160z m350 0 l0 -160 -160 0 -160 0
0 160 0 160 160 0 160 0 0 -160z m350 0 l0 -160 -160 0 -160 0 0 160 0 160
160 0 160 0 0 -160z m350 0 l0 -160 -160 0 -160 0 0 160 0 160 160 0 160 0 0
-160z m350 0 l0 -160 -160 0 -160 0 0 160 0 160 160 0 160 0 0 -160z m100 0
l0 -160 -35 0 -35 0 0 160 0 160 35 0 35 0 0 -160z m-6050 -350 l0 -160 -35 0
-35 0 0 160 0 160 35 0 35 0 0 -160z m350 0 l0 -160 -160 0 -160 0 0 160 0
160 160 0 160 0 0 -160z m350 0 l0 -160 -160 0 -160 0 0 160 0 160 160 0 160
0 0 -160z m350 0 l0 -160 -160 0 -160 0 0 160 0 160 160 0 160 0 0 -160z m350
0 l0 -160 -160 0 -160 0 0 160 0 160 160 0 160 0 0 -160z m350 0 l0 -160 -160
0 -160 0 0 160 0 160 160 0 160 0 0 -160z m350 0 l0 -160 -160 0 -160 0 0 160
0 160 160 0 160 0 0 -160z m350 0 l0 -160 -160 0 -160 0 0 160 0 160 160 0
160 0 0 -160z m350 0 l0 -160 -160 0 -160 0 0 160 0 160 160 0 160 0 0 -160z
m700 0 l0 -160 -160 0 -160 0 0 160 0 160 160 0 160 0 0 -160z m350 0 l0 -160
-160 0 -160 0 0 160 0 160 160 0 160 0 0 -160z m350 0 l0 -160 -160 0 -160 0
0 160 0 160 160 0 160 0 0 -160z m350 0 l0 -160 -160 0 -160 0 0 160 0 160
160 0 160 0 0 -160z m350 0 l0 -160 -160 0 -160 0 0 160 0 160 160 0 160 0 0
-160z m350 0 l0 -160 -160 0 -160 0 0 160 0 160 160 0 160 0 0 -160z m350 0
l0 -160 -160 0 -160 0 0 160 0 160 160 0 160 0 0 -160z m350 0 l0 -160 -160 0
-160 0 0 160 0 160 160 0 160 0 0 -160z m100 0 l0 -160 -35 0 -35 0 0 160 0
160 35 0 35 0 0 -160z m-6050 -350 l0 -160 -35 0 -35 0 0 160 0 160 35 0 35 0
0 -160z m350 0 l0 -160 -160 0 -160 0 0 160 0 160 160 0 160 0 0 -160z m350 0
l0 -160 -160 0 -160 0 0 160 0 160 160 0 160 0 0 -160z m350 0 l0 -160 -160 0
-160 0 0 160 0 160 160 0 160 0 0 -160z m350 0 l0 -160 -160 0 -160 0 0 160 0
160 160 0 160 0 0 -160z m350 0 l0 -160 -160 0 -160 0 0 160 0 160 160 0 160
0 0 -160z m350 0 l0 -160 -160 0 -160 0 0 160 0 160 160 0 160 0 0 -160z m350
0 l0 -160 -160 0 -160 0 0 160 0 160 160 0 160 0 0 -160z m350 0 l0 -160 -160
0 -160 0 0 160 0 160 160 0 160 0 0 -160z m700 0 l0 -160 -160 0 -160 0 0 160
0 160 160 0 160 0 0 -160z m350 0 l0 -160 -160 0 -160 0 0 160 0 160 160 0
160 0 0 -160z m350 0 l0 -160 -160 0 -160 0 0 160 0 160 160 0 160 0 0 -160z
m350 0 l0 -160 -160 0 -160 0 0 160 0 160 160 0 160 0 0 -160z m350 0 l0 -160
-160 0 -160 0 0 160 0 160 160 0 160 0 0 -160z m350 0 l0 -160 -160 0 -160 0
0 160 0 160 160 0 160 0 0 -160z m350 0 l0 -160 -160 0 -160 0 0 160 0 160
160 0 160 0 0 -160z m350 0 l0 -160 -160 0 -160 0 0 160 0 160 160 0 160 0 0
-160z m100 0 l0 -160 -35 0 -35 0 0 160 0 160 35 0 35 0 0 -160z m-6050 -350
l0 -160 -35 0 -35 0 0 160 0 160 35 0 35 0 0 -160z m350 0 l0 -160 -160 0
-160 0 0 160 0 160 160 0 160 0 0 -160z m350 0 l0 -160 -160 0 -160 0 0 160 0
160 160 0 160 0 0 -160z m350 0 l0 -160 -160 0 -160 0 0 160 0 160 160 0 160
0 0 -160z m350 0 l0 -160 -160 0 -160 0 0 160 0 160 160 0 160 0 0 -160z m350
0 l0 -160 -160 0 -160 0 0 160 0 160 160 0 160 0 0 -160z m350 0 l0 -160 -160
0 -160 0 0 160 0 160 160 0 160 0 0 -160z m350 0 l0 -160 -160 0 -160 0 0 160
0 160 160 0 160 0 0 -160z m350 0 l0 -160 -160 0 -160 0 0 160 0 160 160 0
160 0 0 -160z m700 0 l0 -160 -160 0 -160 0 0 160 0 160 160 0 160 0 0 -160z
m350 0 l0 -160 -160 0 -160 0 0 160 0 160 160 0 160 0 0 -160z m350 0 l0 -160
-160 0 -160 0 0 160 0 160 160 0 160 0 0 -160z m350 0 l0 -160 -160 0 -160 0
0 160 0 160 160 0 160 0 0 -160z m350 0 l0 -160 -160 0 -160 0 0 160 0 160
160 0 160 0 0 -160z m350 0 l0 -160 -160 0 -160 0 0 160 0 160 160 0 160 0 0
-160z m350 0 l0 -160 -160 0 -160 0 0 160 0 160 160 0 160 0 0 -160z m350 0
l0 -160 -160 0 -160 0 0 160 0 160 160 0 160 0 0 -160z m100 0 l0 -160 -35 0
-35 0 0 160 0 160 35 0 35 0 0 -160z m-6050 -225 c0 -33 -2 -35 -35 -35 -33 0
-35 2 -35 35 0 33 2 35 35 35 33 0 35 -2 35 -35z m350 0 l0 -35 -160 0 -160 0
0 35 0 35 160 0 160 0 0 -35z m350 0 l0 -35 -160 0 -160 0 0 35 0 35 160 0
160 0 0 -35z m350 0 l0 -35 -160 0 -160 0 0 35 0 35 160 0 160 0 0 -35z m350
0 l0 -35 -160 0 -160 0 0 35 0 35 160 0 160 0 0 -35z m350 0 l0 -35 -160 0
-160 0 0 35 0 35 160 0 160 0 0 -35z m350 0 l0 -35 -160 0 -160 0 0 35 0 35
160 0 160 0 0 -35z m350 0 l0 -35 -160 0 -160 0 0 35 0 35 160 0 160 0 0 -35z
m350 0 l0 -35 -160 0 -160 0 0 35 0 35 160 0 160 0 0 -35z m700 0 l0 -35 -160
0 -160 0 0 35 0 35 160 0 160 0 0 -35z m350 0 l0 -35 -160 0 -160 0 0 35 0 35
160 0 160 0 0 -35z m350 0 l0 -35 -160 0 -160 0 0 35 0 35 160 0 160 0 0 -35z
m350 0 l0 -35 -160 0 -160 0 0 35 0 35 160 0 160 0 0 -35z m350 0 l0 -35 -160
0 -160 0 0 35 0 35 160 0 160 0 0 -35z m350 0 l0 -35 -160 0 -160 0 0 35 0 35
160 0 160 0 0 -35z m350 0 l0 -35 -160 0 -160 0 0 35 0 35 160 0 160 0 0 -35z
m350 0 l0 -35 -160 0 -160 0 0 35 0 35 160 0 160 0 0 -35z m100 0 c0 -33 -2
-35 -35 -35 -33 0 -35 2 -35 35 0 33 2 35 35 35 33 0 35 -2 35 -35z"/>
</g>
</svg>
